<svg xmlns="http://www.w3.org/2000/svg" version="1.1" xmlns:xlink="http://www.w3.org/1999/xlink" xmlns:svgjs="http://svgjs.dev/svgjs" width="1440" height="560" preserveAspectRatio="none" viewBox="0 0 1440 560"><g mask="url(&quot;#SvgjsMask1007&quot;)" fill="none"><rect width="1440" height="560" x="0" y="0" fill="rgba(35, 9, 90, 1)"></rect><path d="M383 231L382 609" stroke-width="10" stroke="url(&quot;#SvgjsLinearGradient1008&quot;)" stroke-linecap="round" class="Down"></path><path d="M272 497L271 645" stroke-width="6" stroke="url(&quot;#SvgjsLinearGradient1008&quot;)" stroke-linecap="round" class="Down"></path><path d="M80 355L79 644" stroke-width="6" stroke="url(&quot;#SvgjsLinearGradient1008&quot;)" stroke-linecap="round" class="Down"></path><path d="M218 275L217 437" stroke-width="8" stroke="url(&quot;#SvgjsLinearGradient1008&quot;)" stroke-linecap="round" class="Down"></path><path d="M1353 8L1352 189" stroke-width="6" stroke="url(&quot;#SvgjsLinearGradient1008&quot;)" stroke-linecap="round" class="Down"></path><path d="M371 258L370 665" stroke-width="10" stroke="url(&quot;#SvgjsLinearGradient1009&quot;)" stroke-linecap="round" class="Up"></path><path d="M422 252L421 50" stroke-width="8" stroke="url(&quot;#SvgjsLinearGradient1008&quot;)" stroke-linecap="round" class="Down"></path><path d="M762 133L761 -184" stroke-width="6" stroke="url(&quot;#SvgjsLinearGradient1008&quot;)" stroke-linecap="round" class="Down"></path><path d="M1121 136L1120 543" stroke-width="8" stroke="url(&quot;#SvgjsLinearGradient1008&quot;)" stroke-linecap="round" class="Down"></path><path d="M1366 94L1365 258" stroke-width="6" stroke="url(&quot;#SvgjsLinearGradient1009&quot;)" stroke-linecap="round" class="Up"></path><path d="M109 270L108 -84" stroke-width="10" stroke="url(&quot;#SvgjsLinearGradient1009&quot;)" stroke-linecap="round" class="Up"></path><path d="M527 360L526 99" stroke-width="10" stroke="url(&quot;#SvgjsLinearGradient1009&quot;)" stroke-linecap="round" class="Up"></path><path d="M1220 26L1219 -219" stroke-width="6" stroke="url(&quot;#SvgjsLinearGradient1008&quot;)" stroke-linecap="round" class="Down"></path><path d="M996 458L995 179" stroke-width="6" stroke="url(&quot;#SvgjsLinearGradient1008&quot;)" stroke-linecap="round" class="Down"></path><path d="M900 399L899 98" stroke-width="6" stroke="url(&quot;#SvgjsLinearGradient1009&quot;)" stroke-linecap="round" class="Up"></path><path d="M468 435L467 255" stroke-width="6" stroke="url(&quot;#SvgjsLinearGradient1008&quot;)" stroke-linecap="round" class="Down"></path><path d="M949 442L948 633" stroke-width="10" stroke="url(&quot;#SvgjsLinearGradient1008&quot;)" stroke-linecap="round" class="Down"></path><path d="M759 118L758 493" stroke-width="6" stroke="url(&quot;#SvgjsLinearGradient1009&quot;)" stroke-linecap="round" class="Up"></path><path d="M1261 190L1260 -154" stroke-width="10" stroke="url(&quot;#SvgjsLinearGradient1008&quot;)" stroke-linecap="round" class="Down"></path><path d="M704 272L703 -127" stroke-width="8" stroke="url(&quot;#SvgjsLinearGradient1008&quot;)" stroke-linecap="round" class="Down"></path><path d="M565 212L564 -51" stroke-width="6" stroke="url(&quot;#SvgjsLinearGradient1008&quot;)" stroke-linecap="round" class="Down"></path><path d="M168 513L167 297" stroke-width="10" stroke="url(&quot;#SvgjsLinearGradient1008&quot;)" stroke-linecap="round" class="Down"></path><path d="M1225 99L1224 -214" stroke-width="6" stroke="url(&quot;#SvgjsLinearGradient1009&quot;)" stroke-linecap="round" class="Up"></path><path d="M150 354L149 647" stroke-width="8" stroke="url(&quot;#SvgjsLinearGradient1009&quot;)" stroke-linecap="round" class="Up"></path><path d="M559 359L558 541" stroke-width="10" stroke="url(&quot;#SvgjsLinearGradient1008&quot;)" stroke-linecap="round" class="Down"></path><path d="M403 368L402 693" stroke-width="8" stroke="url(&quot;#SvgjsLinearGradient1008&quot;)" stroke-linecap="round" class="Down"></path><path d="M879 259L878 13" stroke-width="6" stroke="url(&quot;#SvgjsLinearGradient1008&quot;)" stroke-linecap="round" class="Down"></path><path d="M689 163L688 482" stroke-width="10" stroke="url(&quot;#SvgjsLinearGradient1009&quot;)" stroke-linecap="round" class="Up"></path><path d="M1301 122L1300 500" stroke-width="8" stroke="url(&quot;#SvgjsLinearGradient1008&quot;)" stroke-linecap="round" class="Down"></path><path d="M589 104L588 -238" stroke-width="6" stroke="url(&quot;#SvgjsLinearGradient1009&quot;)" stroke-linecap="round" class="Up"></path><path d="M1053 432L1052 136" stroke-width="10" stroke="url(&quot;#SvgjsLinearGradient1009&quot;)" stroke-linecap="round" class="Up"></path><path d="M375 124L374 -178" stroke-width="6" stroke="url(&quot;#SvgjsLinearGradient1008&quot;)" stroke-linecap="round" class="Down"></path><path d="M1362 170L1361 -189" stroke-width="6" stroke="url(&quot;#SvgjsLinearGradient1008&quot;)" stroke-linecap="round" class="Down"></path><path d="M681 377L680 539" stroke-width="10" stroke="url(&quot;#SvgjsLinearGradient1008&quot;)" stroke-linecap="round" class="Down"></path><path d="M145 43L144 -238" stroke-width="10" stroke="url(&quot;#SvgjsLinearGradient1008&quot;)" stroke-linecap="round" class="Down"></path><path d="M899 219L898 364" stroke-width="10" stroke="url(&quot;#SvgjsLinearGradient1009&quot;)" stroke-linecap="round" class="Up"></path></g><defs><mask id="SvgjsMask1007"><rect width="1440" height="560" fill="#ffffff"></rect></mask><linearGradient x1="0%" y1="0%" x2="0%" y2="100%" id="SvgjsLinearGradient1008"><stop stop-color="rgba(1, 1, 1, 0)" offset="0"></stop><stop stop-color="rgba(1, 1, 1, 1)" offset="1"></stop></linearGradient><linearGradient x1="0%" y1="100%" x2="0%" y2="0%" id="SvgjsLinearGradient1009"><stop stop-color="rgba(1, 1, 1, 0)" offset="0"></stop><stop stop-color="rgba(1, 1, 1, 1)" offset="1"></stop></linearGradient></defs></svg>