<svg version="1.1" xmlns="http://www.w3.org/2000/svg" xmlns:xlink="http://www.w3.org/1999/xlink" width="1560" height="804"><defs/><g><path fill="none" stroke="#02063B" paint-order="fill stroke markers" d=" M 20 407.0184094276305 L 21 407.26774900224365 L 22 407.51685754621127 L 23 407.7657241342391 L 24 408.01433785164454 L 25 408.2626877948352 L 26 408.51076307178727 L 27 408.7585528025231 L 28 409.00604611958846 L 29 409.253232168529 L 30 409.50010010836644 L 31 409.74663911207404 L 32 409.9928383670513 L 33 410.2386870755984 L 34 410.48417445538956 L 35 410.72928973994595 L 36 410.97402217910803 L 37 411.2183610395068 L 38 411.46229560503485 L 39 411.705815177316 L 40 411.9489090761748 L 41 412.1915666401046 L 42 412.4337772267355 L 43 412.67553021330093 L 44 412.91681499710353 L 45 413.15762099598004 L 46 413.3979376487657 L 47 413.6377544157573 L 48 413.8770607791753 L 49 414.1158462436252 L 50 414.35410033655796 L 51 414.59181260872913 L 52 414.82897263465725 L 53 415.06557001308096 L 54 415.30159436741536 L 55 415.53703534620695 L 56 415.77188262358754 L 57 416.0061258997274 L 58 416.23975490128674 L 59 416.4727593818664 L 60 416.7051291224572 L 61 416.93685393188804 L 62 417.16792364727297 L 63 417.39832813445685 L 64 417.6280572884599 L 65 417.85710103392074 L 66 418.0854493255384 L 67 418.3130921485127 L 68 418.5400195189837 L 69 418.7662214844695 L 70 418.9916881243026 L 71 419.21640955006507 L 72 419.44037590602244 L 73 419.6635773695556 L 74 419.8860041515917 L 75 420.1076464970338 L 76 420.3284946851881 L 77 420.54853903019097 L 78 420.767769881433 L 79 420.98617762398294 L 80 421.20375267900897 L 81 421.4204855041989 L 82 421.6363665941787 L 83 421.85138648092936 L 84 422.0655357342022 L 85 422.27880496193234 L 86 422.4911848106508 L 87 422.70266596589437 L 88 422.91323915261455 L 89 423.12289513558414 L 90 423.33162471980205 L 91 423.539418750897 L 92 423.7462681155288 L 93 423.95216374178773 L 94 424.15709659959305 L 95 424.3610577010886 L 96 424.56403810103706 L 97 424.76602889721227 L 98 424.96702123078967 L 99 425.16700628673493 L 100 425.3659752941904 L 101 425.5639195268598 L 102 425.7608303033911 L 103 425.9566989877571 L 104 426.1515169896341 L 105 426.34527576477893 L 106 426.5379668154034 L 107 426.7295816905473 L 108 426.92011198644866 L 109 427.1095493469126 L 110 427.29788546367774 L 111 427.4851120767806 L 112 427.6712209749177 L 113 427.8562039958059 L 114 428.0400530265403 L 115 428.2227600039501 L 116 428.40431691495206 L 117 428.5847157969021 L 118 428.76394873794453 L 119 428.94200787735895 L 120 429.11888540590496 L 121 429.29457356616484 L 122 429.4690646528837 L 123 429.64235101330723 L 124 429.81442504751766 L 125 429.98527920876677 L 126 430.15490600380696 L 127 430.32329799322014 L 128 430.4904477917435 L 129 430.656348068594 L 130 430.8209915477893 L 131 430.98437100846735 L 132 431.1464792852027 L 133 431.3073092683211 L 134 431.46685390421106 L 135 431.6251061956333 L 136 431.7820592020276 L 137 431.9377060398173 L 138 432.092039882711 L 139 432.2450539620021 L 140 432.39674156686567 L 141 432.54709604465273 L 142 432.6961108011819 L 143 432.8437793010287 L 144 432.9900950678124 L 145 433.13505168447966 L 146 433.2786427935862 L 147 433.4208620975756 L 148 433.5617033590554 L 149 433.70116040107087 L 150 433.83922710737556 L 151 433.9758974227001 L 152 434.111165353017 L 153 434.2450249658043 L 154 434.3774703903053 L 155 434.5084958177861 L 156 434.63809550179053 L 157 434.7662637583919 L 158 434.89299496644264 L 159 435.01828356782045 L 160 435.14212406767234 L 161 435.2645110346555 L 162 435.38543910117556 L 163 435.504902963622 L 164 435.6228973826005 L 165 435.73941718316337 L 166 435.8544572550357 L 167 435.96801255284004 L 168 436.08007809631755 L 169 436.19064897054636 L 170 436.29972032615706 L 171 436.40728737954566 L 172 436.513345413083 L 173 436.617889775322 L 174 436.72091588120145 L 175 436.82241921224727 L 176 436.9223953167704 L 177 437.02083981006234 L 178 437.11774837458734 L 179 437.2131167601716 L 180 437.3069407841901 L 181 437.3992163317494 L 182 437.4899393558688 L 183 437.57910587765724 L 184 437.6667119864883 L 185 437.7527538401712 L 186 437.8372276651198 L 187 437.9201297565179 L 188 438.00145647848143 L 189 438.0812042642185 L 190 438.15936961618536 L 191 438.23594910624 L 192 438.31093937579243 L 193 438.384337135952 L 194 438.45613916767167 L 195 438.52634232188916 L 196 438.594943519665 L 197 438.6619397523177 L 198 438.7273280815557 L 199 438.791105639606 L 200 438.85326962934016 L 201 438.91381732439703 L 202 438.9727460693021 L 203 439.0300532795841 L 204 439.08573644188823 L 205 439.1397931140866 L 206 439.1922209253853 L 207 439.24301757642803 L 208 439.2921808393974 L 209 439.3397085581125 L 210 439.3855986481231 L 211 439.4298490968017 L 212 439.47245796343145 L 213 439.51342337929105 L 214 439.5527435477372 L 215 439.59041674428295 L 216 439.62644131667366 L 217 439.66081568495935 L 218 439.6935383415639 L 219 439.7246078513512 L 220 439.7540228516883 L 221 439.7817820525048 L 222 439.8078842363498 L 223 439.8323282584451 L 224 439.85511304673537 L 225 439.8762376019352 L 226 439.8957009975731 L 227 439.91350238003196 L 228 439.92964096858645 L 229 439.94411605543735 L 230 439.9569270057426 L 231 439.96807325764513 L 232 439.97755432229746 L 233 439.9853697838832 L 234 439.9915192996352 L 235 439.99600259985067 L 236 439.998819487903 L 237 439.9999698402504 L 238 439.9994536064411 L 239 439.9972708091159 L 240 439.993421544007 L 241 439.98790597993377 L 242 439.98072435879544 L 243 439.9718769955604 L 244 439.9613642782525 L 245 439.9491866679339 L 246 439.93534469868496 L 247 439.9198389775807 L 248 439.9026701846643 L 249 439.88383907291734 L 250 439.8633464682264 L 251 439.84119326934723 L 252 439.8173804478652 L 253 439.7919090481528 L 254 439.7647801873235 L 255 439.735995055183 L 256 439.7055549141773 L 257 439.67346109933675 L 258 439.639715018218 L 259 439.6043181508419 L 260 439.56727204962897 L 261 439.528578339331 L 262 439.48823871695987 L 263 439.4462549517132 L 264 439.4026288848967 L 265 439.35736242984353 L 266 439.31045757183017 L 267 439.2619163679894 L 268 439.2117409472203 L 269 439.1599335100947 L 270 439.10649632876056 L 271 439.0514317468426 L 272 438.9947421793393 L 273 438.93643011251714 L 274 438.8764981038013 L 275 438.8149487816638 L 276 438.75178484550804 L 277 438.68700906555046 L 278 438.6206242826991 L 279 438.55263340842885 L 280 438.48303942465395 L 281 438.4118453835971 L 282 438.33905440765557 L 283 438.26466968926434 L 284 438.18869449075606 L 285 438.11113214421795 L 286 438.0319860513457 L 287 437.9512596832942 L 288 437.86895658052543 L 289 437.78508035265315 L 290 437.6996346782844 L 291 437.6126233048584 L 292 437.52405004848225 L 293 437.43391879376327 L 294 437.3422334936388 L 295 437.24899816920293 L 296 437.15421690952996 L 297 437.0578938714952 L 298 436.96003327959255 L 299 436.8606394257493 L 300 436.7597166691379 L 301 436.6572694359847 L 302 436.5533022193759 L 303 436.44781957906054 L 304 436.3408261412504 L 305 436.2323265984171 L 306 436.1223257090865 L 307 436.0108282976297 L 308 435.89783925405175 L 309 435.783363533777 L 310 435.6674061574318 L 311 435.54997221062433 L 312 435.4310668437216 L 313 435.31069527162356 L 314 435.1888627735342 L 315 435.06557469273025 L 316 434.9408364363268 L 317 434.81465347504 L 318 434.6870313429475 L 319 434.557975637245 L 320 434.4274920180018 L 321 434.2955862079116 L 322 434.162263992042 L 323 434.027531217581 L 324 433.8913937935799 L 325 433.75385769069464 L 326 433.6149289409239 L 327 433.47461363734436 L 328 433.3329179338436 L 329 433.1898480448501 L 330 433.045410245061 L 331 432.8996108691665 L 332 432.7524563115722 L 333 432.60395302611863 L 334 432.45410752579846 L 335 432.30292638247045 L 336 432.15041622657145 L 337 431.99658374682554 L 338 431.84143568995074 L 339 431.6849788603632 L 340 431.52722011987834 L 341 431.36816638741055 L 342 431.20782463866925 L 343 431.04620190585314 L 344 430.8833052773418 L 345 430.71914189738465 L 346 430.55371896578794 L 347 430.3870437375986 L 348 430.21912352278645 L 349 430.04996568592315 L 350 429.87957764585957 L 351 429.70796687540036 L 352 429.5351409009761 L 353 429.3611073023131 L 354 429.1858737121014 L 355 429.0094478156596 L 356 428.83183735059794 L 357 428.653050106479 L 358 428.4730939244759 L 359 428.2919766970288 L 360 428.1097063674982 L 361 427.926290929817 L 362 427.7417384281398 L 363 427.55605695648984 L 364 427.36925465840454 L 365 427.18133972657773 L 366 426.99232040250087 L 367 426.8022049761013 L 368 426.6110017853787 L 369 426.4187192160395 L 370 426.2253657011291 L 371 426.0309497206618 L 372 425.8354798012491 L 373 425.63896451572595 L 374 425.4414124827741 L 375 425.24283236654486 L 376 425.0432328762785 L 377 424.84262276592284 L 378 424.6410108337488 L 379 424.4384059219649 L 380 424.2348169163292 L 381 424.0302527457598 L 382 423.8247223819432 L 383 423.6182348389408 L 384 423.4107991727934 L 385 423.2024244811243 L 386 422.9931199027401 L 387 422.78289461723006 L 388 422.5717578445633 L 389 422.35971884468466 L 390 422.1467869171084 L 391 421.9329714005103 L 392 421.71828167231854 L 393 421.50272714830174 L 394 421.2863172821566 L 395 421.0690615650928 L 396 420.8509695254172 L 397 420.63205072811576 L 398 420.41231477443375 L 399 420.1917713014552 L 400 419.97042998167984 L 401 419.74830052259904 L 402 419.5253926662701 L 403 419.30171618888875 L 404 419.0772809003608 L 405 418.8520966438715 L 406 418.6261732954541 L 407 418.3995207635566 L 408 418.1721489886072 L 409 417.94406794257833 L 410 417.7152876285494 L 411 417.4858180802679 L 412 417.2556693617095 L 413 417.02485156663676 L 414 416.7933748181561 L 415 416.5612492682741 L 416 416.32848509745224 L 417 416.09509251416034 L 418 415.8610817544288 L 419 415.6264630813999 L 420 415.3912467848773 L 421 415.15544318087507 L 422 414.9190626111652 L 423 414.6821154428239 L 424 414.44461206777714 L 425 414.2065629023446 L 426 413.96797838678316 L 427 413.72886898482875 L 428 413.4892451832376 L 429 413.2491174913261 L 430 413.0084964405103 L 431 412.76739258384356 L 432 412.52581649555407 L 433 412.28377877058085 L 434 412.04129002410923 L 435 411.7983608911052 L 436 411.55500202584903 L 437 411.31122410146816 L 438 411.0670378094687 L 439 410.8224538592669 L 440 410.57748297771934 L 441 410.3321359086524 L 442 410.08642341239124 L 443 409.8403562652876 L 444 409.59394525924756 L 445 409.3472012012578 L 446 409.100134912912 L 447 408.85275722993595 L 448 408.60507900171257 L 449 408.357111090806 L 450 408.10886437248485 L 451 407.860349734246 L 452 407.61157807533624 L 453 407.36256030627493 L 454 407.11330734837514 L 455 406.8638301332646 L 456 406.61413960240674 L 457 406.3642467066202 L 458 406.1141624055989 L 459 405.8638976674315 L 460 405.61346346812 L 461 405.36287079109877 L 462 405.11213062675233 L 463 404.86125397193393 L 464 404.6102518294827 L 465 404.3591352077416 L 466 404.10791512007415 L 467 403.85660258438185 L 468 403.6052086226205 L 469 403.3537442603173 L 470 403.10222052608685 L 471 402.8506484511478 L 472 402.59903906883875 L 473 402.34740341413465 L 474 402.0957525231627 L 475 401.8440974327182 L 476 401.59244917978066 L 477 401.34081880102985 L 478 401.0892173323615 L 479 400.8376558084034 L 480 400.58614526203155 L 481 400.3346967238861 L 482 400.08332122188773 L 483 399.83202978075394 L 484 399.5808334215155 L 485 399.3297431610331 L 486 399.0787700115142 L 487 398.8279249800302 L 488 398.57721906803334 L 489 398.3266632708745 L 490 398.07626857732095 L 491 397.8260459690743 L 492 397.5760064202889 L 493 397.3261608970905 L 494 397.0765203570956 L 495 396.82709574893033 L 496 396.5778980117508 L 497 396.32893807476296 L 498 396.08022685674354 L 499 395.831775265561 L 500 395.5835941976972 L 501 395.33569453776954 L 502 395.08808715805355 L 503 394.84078291800597 L 504 394.59379266378863 L 505 394.34712722779284 L 506 394.10079742816396 L 507 393.85481406832724 L 508 393.60918793651405 L 509 393.3639298052883 L 510 393.1190504310747 L 511 392.8745605536862 L 512 392.63047089585365 L 513 392.3867921627551 L 514 392.1435350415465 L 515 391.90071020089295 L 516 391.6583282905007 L 517 391.41639994065025 L 518 391.1749357617299 L 519 390.9339463437707 L 520 390.6934422559817 L 521 390.45343404628676 L 522 390.2139322408615 L 523 389.97494734367194 L 524 389.73648983601385 L 525 389.49857017605297 L 526 389.26119879836625 L 527 389.02438611348447 L 528 388.7881425074352 L 529 388.55247834128807 L 530 388.31740395069943 L 531 388.0829296454598 L 532 387.84906570904127 L 533 387.61582239814675 L 534 387.3832099422599 L 535 387.1512385431967 L 536 386.9199183746579 L 537 386.68925958178295 L 538 386.4592722807049 L 539 386.22996655810675 L 540 386.0013524707792 L 541 385.77344004517954 L 542 385.54623927699186 L 543 385.3197601306886 L 544 385.0940125390938 L 545 384.8690064029471 L 546 384.6447515904698 L 547 384.421257936932 L 548 384.19853524422126 L 549 383.97659328041243 L 550 383.7554417793399 L 551 383.5350904401698 L 552 383.3155489269756 L 553 383.0968268683134 L 554 382.8789338568002 L 555 382.66187944869296 L 556 382.44567316346956 L 557 382.23032448341127 L 558 382.0158428531868 L 559 381.8022376794384 L 560 381.5895183303687 L 561 381.3776941353306 L 562 381.1667743844176 L 563 380.95676832805617 L 564 380.7476851766009 L 565 380.5395340999296 L 566 380.3323242270418 L 567 380.1260646456579 L 568 379.92076440182103 L 569 379.7164324995 L 570 379.51307790019456 L 571 379.3107095225423 L 572 379.1093362419276 L 573 378.90896689009224 L 574 378.70961025474804 L 575 378.51127507919176 L 576 378.3139700619213 L 577 378.1177038562542 L 578 377.9224850699485 L 579 377.7283222648249 L 580 377.5352239563911 L 581 377.343198613469 L 582 377.1522546578224 L 583 376.9624004637884 L 584 376.77364435790975 L 585 376.58599461856954 L 586 376.3994594756286 L 587 376.21404711006403 L 588 376.02976565361075 L 589 375.84662318840486 L 590 375.66462774662887 L 591 375.4837873101598 L 592 375.30410981021885 L 593 375.12560312702374 L 594 374.948275089443 L 595 374.7721334746525 L 596 374.5971860077947 L 597 374.4234403616395 L 598 374.25090415624794 L 599 374.07958495863784 L 600 373.9094902824522 L 601 373.7406275876293 L 602 373.5730042800758 L 603 373.40662771134186 L 604 373.2415051782987 L 605 373.07764392281865 L 606 372.9150511314573 L 607 372.7537339351386 L 608 372.5936994088421 L 609 372.4349545712925 L 610 372.27750638465176 L 611 372.1213617542141 L 612 371.96652752810274 L 613 371.81301049697 L 614 371.6608173936989 L 615 371.50995489310856 L 616 371.3604296116608 L 617 371.2122481071705 L 618 371.0654168785177 L 619 370.91994236536254 L 620 370.7758309478629 L 621 370.6330889463948 L 622 370.49172262127485 L 623 370.3517381724858 L 624 370.2131417394048 L 625 370.075939400534 L 626 369.94013717323384 L 627 369.80574101345945 L 628 369.67275681549916 L 629 369.541190411716 L 630 369.41104757229226 L 631 369.28233400497595 L 632 369.1550553548307 L 633 369.0292172039883 L 634 368.9048250714036 L 635 368.7818844126127 L 636 368.66040061949354 L 637 368.54037902002955 L 638 368.42182487807577 L 639 368.3047433931283 L 640 368.189139700096 L 641 368.07501886907534 L 642 367.96238590512814 L 643 367.8512457480619 L 644 367.7416032722134 L 645 367.63346328623464 L 646 367.5268305328822 L 647 367.4217096888088 L 648 367.3181053643589 L 649 367.2160221033659 L 650 367.115464382953 L 651 367.0164366133371 L 652 366.9189431376349 L 653 366.82298823167304 L 654 366.7285761038 L 655 366.63571089470184 L 656 366.5443966772205 L 657 366.4546374561753 L 658 366.3664371681871 L 659 366.27979968150566 L 660 366.19472879584043 L 661 366.1112282421932 L 662 366.02930168269495 L 663 365.9489527104451 L 664 365.870184849354 L 665 365.7930015539883 L 666 365.71740620941927 L 667 365.6434021310747 L 668 365.5709925645934 L 669 365.50018068568255 L 670 365.43096959997877 L 671 365.3633623429118 L 672 365.29736187957127 L 673 365.23297110457685 L 674 365.1701928419512 L 675 365.1090298449959 L 676 365.04948479617127 L 677 364.9915603069781 L 678 364.93525891784344 L 679 364.88058309800914 L 680 364.8275352454236 L 681 364.7761176866364 L 682 364.7263326766964 L 683 364.6781823990532 L 684 364.63166896546045 L 685 364.58679441588424 L 686 364.543560718413 L 687 364.5019697691715 L 688 364.4620233922375 L 689 364.4237233395618 L 690 364.38707129089147 L 691 364.3520688536961 L 692 364.31871756309744 L 693 364.2870188818018 L 694 364.2569742000362 L 695 364.22858483548725 L 696 364.20185203324337 L 697 364.17677696574015 L 698 364.153360732709 L 699 364.1316043611289 L 700 364.1115088051813 L 701 364.0930749462084 L 702 364.0763035926744 L 703 364.06119548012987 L 704 364.04775127118006 L 705 364.0359715554551 L 706 364.0258568495847 L 707 364.01740759717524 L 708 364.0106241687903 L 709 364.0055068619346 L 710 364.00205590104065 L 711 364.00027143745933 L 712 364.00015354945276 L 713 364.00170224219136 L 714 364.0049174477531 L 715 364.0097990251269 L 716 364.0163467602187 L 717 364.0245603658608 L 718 364.03443948182445 L 719 364.0459836748356 L 720 364.0591924385942 L 721 364.0740651937959 L 722 364.0906012881579 L 723 364.10879999644743 L 724 364.12866052051334 L 725 364.1501819893215 L 726 364.17336345899264 L 727 364.19820391284395 L 728 364.22470226143355 L 729 364.25285734260854 L 730 364.28266792155546 L 731 364.31413269085493 L 732 364.3472502705388 L 733 364.38201920815067 L 734 364.41843797880955 L 735 364.45650498527687 L 736 364.49621855802644 L 737 364.53757695531755 L 738 364.5805783632717 L 739 364.6252208959517 L 740 364.67150259544496 L 741 364.7194214319486 L 742 364.7689753038593 L 743 364.8201620378648 L 744 364.87297938903964 L 745 364.92742504094326 L 746 364.98349660572205 L 747 365.0411916242137 L 748 365.1005075660551 L 749 365.16144182979355 L 750 365.2239917430005 L 751 365.28815456238914 L 752 365.3539274739344 L 753 365.42130759299647 L 754 365.49029196444747 L 755 365.5608775628007 L 756 365.6330612923439 L 757 365.7068399872742 L 758 365.7822104118378 L 759 365.85916926047133 L 760 365.93771315794714 L 761 366.0178386595211 L 762 366.09954225108373 L 763 366.1828203493145 L 764 366.26766930183874 L 765 366.354085387388 L 766 366.4420648159632 L 767 366.5316037290007 L 768 366.62269819954196 L 769 366.71534423240513 L 770 366.80953776436087 L 771 366.9052746643102 L 772 367.0025507334657 L 773 367.1013617055359 L 774 367.20170324691213 L 775 367.3035709568587 L 776 367.4069603677059 L 777 367.5118669450458 L 778 367.61828608793144 L 779 367.7262131290783 L 780 367.83564333506905 L 781 367.9465719065614 L 782 368.0589939784982 L 783 368.17290462032116 L 784 368.28829883618687 L 785 368.4051715651859 L 786 368.523517681565 L 787 368.6433319949516 L 788 368.7646092505817 L 789 368.88734412953005 L 790 369.01153124894375 L 791 369.1371651622781 L 792 369.26424035953556 L 793 369.3927512675074 L 794 369.52269225001794 L 795 369.6540576081722 L 796 369.7868415806054 L 797 369.9210383437358 L 798 370.05664201202006 L 799 370.19364663821153 L 800 370.3320462136208 L 801 370.47183466837953 L 802 370.6130058717064 L 803 370.7555536321761 L 804 370.899471697991 L 805 371.04475375725514 L 806 371.1913934382511 L 807 371.3393843097195 L 808 371.48871988114104 L 809 371.6393936030212 L 810 371.7913988671773 L 811 371.9447290070286 L 812 372.0993772978885 L 813 372.25533695725954 L 814 372.4126011451307 L 815 372.57116296427756 L 816 372.7310154605649 L 817 372.8921516232514 L 818 373.0545643852972 L 819 373.2182466236742 L 820 373.3831911596778 L 821 373.5493907592422 L 822 373.7168381332577 L 823 373.8855259378902 L 824 374.05544677490326 L 825 374.22659319198266 L 826 374.39895768306326 L 827 374.5725326886582 L 828 374.7473105961903 L 829 374.92328374032604 L 830 375.1004444033118 L 831 375.27878481531235 L 832 375.4582971547513 L 833 375.6389735486545 L 834 375.8208060729953 L 835 376.0037867530419 L 836 376.1879075637071 L 837 376.37316042990045 L 838 376.5595372268824 L 839 376.7470297806203 L 840 376.93562986814726 L 841 377.1253292179227 L 842 377.3161195101949 L 843 377.50799237736624 L 844 377.70093940435993 L 845 377.89495212898913 L 846 378.09002204232814 L 847 378.28614058908545 L 848 378.48329916797917 L 849 378.68148913211394 L 850 378.8807017893606 L 851 379.080928402737 L 852 379.28216019079144 L 853 379.4843883279875 L 854 379.68760394509155 L 855 379.89179812956144 L 856 380.0969619259373 L 857 380.3030863362346 L 858 380.5101623203386 L 859 380.71818079640076 L 860 380.9271326412372 L 861 381.1370086907288 L 862 381.34779974022297 L 863 381.55949654493753 L 864 381.7720898203661 L 865 381.9855702426851 L 866 382.1999284491631 L 867 382.4151550385711 L 868 382.63124057159473 L 869 382.84817557124876 L 870 383.0659505232923 L 871 383.2845558766462 L 872 383.5039820438118 L 873 383.72421940129175 L 874 383.94525829001174 L 875 384.1670890157443 L 876 384.3897018495339 L 877 384.61308702812363 L 878 384.8372347543834 L 879 385.06213519773985 L 880 385.287778494607 L 881 385.51415474881924 L 882 385.74125403206517 L 883 385.9690663843233 L 884 386.1975818142984 L 885 386.42679029986016 L 886 386.65668178848244 L 887 386.8872461976843 L 888 387.11847341547207 L 889 387.350353300783 L 890 387.58287568392996 L 891 387.81603036704723 L 892 388.0498071245381 L 893 388.28419570352327 L 894 388.5191858242903 L 895 388.7547671807446 L 896 388.9909294408614 L 897 389.22766224713916 L 898 389.4649552170532 L 899 389.7027979435117 L 900 389.9411799953118 L 901 390.180090917597 L 902 390.419520232316 L 903 390.659457438682 L 904 390.89989201363335 L 905 391.14081341229496 L 906 391.3822110684408 L 907 391.6240743949575 L 908 391.86639278430846 L 909 392.1091556089991 L 910 392.35235222204295 L 911 392.5959719574287 L 912 392.84000413058783 L 913 393.08443803886354 L 914 393.3292629619797 L 915 393.57446816251115 L 916 393.82004288635494 L 917 394.06597636320157 L 918 394.31225780700754 L 919 394.5588764164683 L 920 394.80582137549214 L 921 395.0530818536744 L 922 395.3006470067726 L 923 395.5485059771818 L 924 395.79664789441097 L 925 396.0450618755599 L 926 396.29373702579613 L 927 396.5426624388331 L 928 396.7918271974083 L 929 397.04122037376186 L 930 397.2908310301165 L 931 397.54064821915654 L 932 397.79066098450824 L 933 398.0408583612204 L 934 398.2912293762453 L 935 398.5417630489199 L 936 398.7924483914472 L 937 399.04327440937845 L 938 399.2942301020952 L 939 399.54530446329176 L 940 399.79648648145803 L 941 400.0477651403622 L 942 400.2991294195341 L 943 400.5505682947484 L 944 400.80207073850835 L 945 401.05362572052906 L 946 401.30522220822144 L 947 401.5568491671762 L 948 401.8084955616475 L 949 402.0601503550372 L 950 402.31180251037875 L 951 402.5634409908214 L 952 402.815054760114 L 953 403.0666327830893 L 954 403.3181640261477 L 955 403.56963745774135 L 956 403.82104204885775 L 957 404.0723667735037 L 958 404.32360060918865 L 959 404.5747325374083 L 960 404.8257515441276 L 961 405.07664662026434 L 962 405.3274067621711 L 963 405.5780209721187 L 964 405.82847825877803 L 965 406.07876763770236 L 966 406.3288781318089 L 967 406.5787987718603 L 968 406.8285185969458 L 969 407.07802665496195 L 970 407.3273120030927 L 971 407.5763637082897 L 972 407.8251708477515 L 973 408.0737225094028 L 974 408.32200779237286 L 975 408.5700158074737 L 976 408.81773567767755 L 977 409.06515653859407 L 978 409.3122675389467 L 979 409.5590578410487 L 980 409.8055166212782 L 981 410.0516330705532 L 982 410.29739639480545 L 983 410.5427958154539 L 984 410.78782056987757 L 985 411.0324599118872 L 986 411.27670311219686 L 987 411.5205394588945 L 988 411.76395825791167 L 989 412.00694883349246 L 990 412.2495005286619 L 991 412.4916027056931 L 992 412.7332447465741 L 993 412.9744160534733 L 994 413.21510604920445 L 995 413.45530417769027 L 996 413.6949999044257 L 997 413.9341827169397 L 998 414.1728421252566 L 999 414.4109676623557 L 1000 414.64854888463077 L 1001 414.8855753723479 L 1002 415.12203673010237 L 1003 415.3579225872748 L 1004 415.59322259848574 L 1005 415.8279264440497 L 1006 416.06202383042734 L 1007 416.2955044906774 L 1008 416.52835818490655 L 1009 416.7605747007186 L 1010 416.99214385366264 L 1011 417.22305548767946 L 1012 417.45329947554694 L 1013 417.68286571932447 L 1014 417.91174415079536 L 1015 418.139924731909 L 1016 418.3673974552206 L 1017 418.5941523443305 L 1018 418.82017945432113 L 1019 419.0454688721939 L 1020 419.2700107173034 L 1021 419.49379514179117 L 1022 419.716812331017 L 1023 419.93905250399007 L 1024 420.1605059137975 L 1025 420.38116284803186 L 1026 420.60101362921733 L 1027 420.82004861523393 L 1028 421.0382581997404 L 1029 421.25563281259565 L 1030 421.4721629202785 L 1031 421.6878390263056 L 1032 421.90265167164796 L 1033 422.1165914351461 L 1034 422.3296489339228 L 1035 422.54181482379494 L 1036 422.7530797996832 L 1037 422.96343459602 L 1038 423.1728699871562 L 1039 423.38137678776553 L 1040 423.5889458532473 L 1041 423.79556808012774 L 1042 424.00123440645893 L 1043 424.2059358122167 L 1044 424.40966331969565 L 1045 424.61240799390345 L 1046 424.81416094295224 L 1047 425.0149133184489 L 1048 425.2146563158831 L 1049 425.41338117501317 L 1050 425.6110791802508 L 1051 425.80774166104266 L 1052 426.00335999225126 L 1053 426.1979255945329 L 1054 426.39142993471387 L 1055 426.58386452616503 L 1056 426.7752209291737 L 1057 426.965490751314 L 1058 427.15466564781474 L 1059 427.34273732192554 L 1060 427.5296975252807 L 1061 427.71553805826096 L 1062 427.90025077035295 L 1063 428.08382756050685 L 1064 428.2662603774917 L 1065 428.4475412202482 L 1066 428.62766213823994 L 1067 428.8066152318022 L 1068 428.98439265248777 L 1069 429.160986603412 L 1070 429.3363893395941 L 1071 429.51059316829713 L 1072 429.6835904493653 L 1073 429.85537359555906 L 1074 430.0259350728879 L 1075 430.1952674009406 L 1076 430.36336315321364 L 1077 430.5302149574366 L 1078 430.69581549589554 L 1079 430.86015750575405 L 1080 431.0232337793717 L 1081 431.1850371646202 L 1082 431.34556056519705 L 1083 431.5047969409367 L 1084 431.6627393081194 L 1085 431.8193807397775 L 1086 431.9747143659992 L 1087 432.1287333742298 L 1088 432.28143100957067 L 1089 432.43280057507525 L 1090 432.58283543204294 L 1091 432.7315290003102 L 1092 432.87887475853927 L 1093 433.02486624450387 L 1094 433.1694970553728 L 1095 433.31276084799094 L 1096 433.4546513391572 L 1097 433.5951623058999 L 1098 433.7342875857504 L 1099 433.8720210770125 L 1100 434.00835673903066 L 1101 434.14328859245467 L 1102 434.27681071950207 L 1103 434.4089172642173 L 1104 434.53960243272905 L 1105 434.668860493504 L 1106 434.7966857775983 L 1107 434.92307267890624 L 1108 435.0480156544061 L 1109 435.171509224403 L 1110 435.2935479727698 L 1111 435.4141265471841 L 1112 435.5332396593632 L 1113 435.65088208529596 L 1114 435.76704866547203 L 1115 435.88173430510807 L 1116 435.9949339743712 L 1117 436.10664270859945 L 1118 436.2168556085197 L 1119 436.32556784046267 L 1120 436.4327746365744 L 1121 436.53847129502583 L 1122 436.64265318021893 L 1123 436.74531572298986 L 1124 436.84645442080944 L 1125 436.9460648379806 L 1126 437.0441426058331 L 1127 437.14068342291466 L 1128 437.2356830551802 L 1129 437.3291373361771 L 1130 437.4210421672282 L 1131 437.51139351761134 L 1132 437.60018742473625 L 1133 437.68741999431836 L 1134 437.7730874005496 L 1135 437.8571858862661 L 1136 437.93971176311305 L 1137 438.0206614117063 L 1138 438.10003128179153 L 1139 438.1778178923994 L 1140 438.25401783199857 L 1141 438.32862775864515 L 1142 438.4016444001295 L 1143 438.4730645541195 L 1144 438.54288508830103 L 1145 438.61110294051554 L 1146 438.677715118894 L 1147 438.74271870198857 L 1148 438.80611083890034 L 1149 438.8678887494045 L 1150 438.92804972407225 L 1151 438.98659112438986 L 1152 439.04351038287393 L 1153 439.09880500318445 L 1154 439.1524725602339 L 1155 439.204510700294 L 1156 439.2549171410986 L 1157 439.30368967194386 L 1158 439.3508261537854 L 1159 439.39632451933187 L 1160 439.4401827731358 L 1161 439.48239899168084 L 1162 439.5229713234665 L 1163 439.56189798908906 L 1164 439.59917728131984 L 1165 439.6348075651797 L 1166 439.6687872780112 L 1167 439.701114929547 L 1168 439.7317891019748 L 1169 439.7608084500002 L 1170 439.7881717009052 L 1171 439.8138776546043 L 1172 439.83792518369694 L 1173 439.860313233517 L 1174 439.88104082217916 L 1175 439.90010704062183 L 1176 439.9175110526471 L 1177 439.93325209495737 L 1178 439.9473294771889 L 1179 439.9597425819419 L 1180 439.97049086480786 L 1181 439.97957385439327 L 1182 439.9869911523403 L 1183 439.99274243334435 L 1184 439.9968274451682 L 1185 439.99924600865324 L 1186 439.9999980177271 L 1187 439.9990834394085 L 1188 439.9965023138086 L 1189 439.99225475412936 L 1190 439.9863409466584 L 1191 439.9787611507608 L 1192 439.9695156988681 L 1193 439.95860499646324 L 1194 439.94602952206304 L 1195 439.9317898271972 L 1196 439.9158865363841 L 1197 439.8983203471033 L 1198 439.8790920297652 L 1199 439.8582024276769 L 1200 439.83565245700544 L 1201 439.8114431067377 L 1202 439.7855754386369 L 1203 439.75805058719584 L 1204 439.72886975958755 L 1205 439.6980342356121 L 1206 439.6655453676405 L 1207 439.63140458055534 L 1208 439.5956133716885 L 1209 439.5581733107552 L 1210 439.51908603978535 L 1211 439.47835327305154 L 1212 439.4359767969937 L 1213 439.3919584701409 L 1214 439.34630022302974 L 1215 439.29900405811986 L 1216 439.25007204970586 L 1217 439.1995063438265 L 1218 439.14730915817046 L 1219 439.09348278197933 L 1220 439.03802957594684 L 1221 438.9809519721156 L 1222 438.9222524737703 L 1223 438.86193365532813 L 1224 438.7999981622255 L 1225 438.7364487108024 L 1226 438.671288088183 L 1227 438.60451915215367 L 1228 438.53614483103723 L 1229 438.466168123565 L 1230 438.394592098745 L 1231 438.3214198957274 L 1232 438.2466547236668 L 1233 438.1702998615817 L 1234 438.09235865821046 L 1235 438.0128345318644 L 1236 437.9317309702782 L 1237 437.8490515304565 L 1238 437.7647998385183 L 1239 437.67897958953756 L 1240 437.5915945473816 L 1241 437.50264854454554 L 1242 437.41214548198445 L 1243 437.32008932894234 L 1244 437.226484122778 L 1245 437.1313339687878 L 1246 437.03464304002586 L 1247 436.9364155771209 L 1248 436.83665588809026 L 1249 436.73536834815104 L 1250 436.63255739952814 L 1251 436.52822755125936 L 1252 436.42238337899795 L 1253 436.3150295248115 L 1254 436.20617069697875 L 1255 436.09581166978273 L 1256 435.98395728330183 L 1257 435.87061244319705 L 1258 435.75578212049703 L 1259 435.6394713513802 L 1260 435.5216852369538 L 1261 435.4024289430298 L 1262 435.28170769989913 L 1263 435.1595268021014 L 1264 435.0358916081934 L 1265 434.9108075405138 L 1266 434.78428008494507 L 1267 434.6563147906735 L 1268 434.5269172699452 L 1269 434.3960931978205 L 1270 434.2638483119246 L 1271 434.1301884121963 L 1272 433.9951193606333 L 1273 433.8586470810354 L 1274 433.7207775587444 L 1275 433.58151684038194 L 1276 433.440871033584 L 1277 433.29884630673337 L 1278 433.1554488886887 L 1279 433.0106850685115 L 1280 432.8645611951906 L 1281 432.71708367736335 L 1282 432.5682589830344 L 1283 432.4180936392927 L 1284 432.26659423202454 L 1285 432.113767405625 L 1286 431.95961986270663 L 1287 431.8041583638054 L 1288 431.6473897270841 L 1289 431.4893208280334 L 1290 431.32995859917037 L 1291 431.16931002973445 L 1292 431.0073821653807 L 1293 430.84418210787095 L 1294 430.67971701476245 L 1295 430.5139940990937 L 1296 430.3470206290683 L 1297 430.1788039277361 L 1298 430.00935137267203 L 1299 429.8386703956526 L 1300 429.66676848233 L 1301 429.4936531719034 L 1302 429.319332056789 L 1303 429.14381278228643 L 1304 428.96710304624366 L 1305 428.7892105987196 L 1306 428.61014324164375 L 1307 428.4299088284744 L 1308 428.2485152638542 L 1309 428.06597050326315 L 1310 427.88228255267 L 1311 427.69745946818114 L 1312 427.51150935568694 L 1313 427.3244403705066 L 1314 427.1362607170304 L 1315 426.94697864835973 L 1316 426.75660246594526 L 1317 426.5651405192228 L 1318 426.3726012052473 L 1319 426.17899296832417 L 1320 425.98432429963935 L 1321 425.7886037368866 L 1322 425.5918398638934 L 1323 425.39404131024406 L 1324 425.1952167509015 L 1325 424.99537490582696 L 1326 424.79452453959703 L 1327 424.5926744610199 L 1328 424.38983352274846 L 1329 424.18601062089243 L 1330 423.981214694628 L 1331 423.77545472580596 L 1332 423.5687397385575 L 1333 423.36107879889863 L 1334 423.1524810143326 L 1335 422.94295553345034 L 1336 422.73251154552923 L 1337 422.5211582801304 L 1338 422.3089050066933 L 1339 422.0957610341298 L 1340 421.88173571041557 L 1341 421.6668384221802 L 1342 421.4510785942955 L 1343 421.23446568946224 L 1344 421.017009207795 L 1345 420.7987186864056 L 1346 420.5796036989849 L 1347 420.3596738553827 L 1348 420.1389388011865 L 1349 419.9174082172983 L 1350 419.69509181951014 L 1351 419.471999358078 L 1352 419.248140617294 L 1353 419.02352541505746 L 1354 418.79816360244433 L 1355 418.57206506327486 L 1356 418.3452397136807 L 1357 418.11769750166934 L 1358 417.8894484066882 L 1359 417.66050243918676 L 1360 417.43086964017783 L 1361 417.2005600807968 L 1362 416.96958386186026 L 1363 416.7379511134228 L 1364 416.50567199433266 L 1365 416.2727566917867 L 1366 416.03921542088284 L 1367 415.80505842417267 L 1368 415.5702959712119 L 1369 415.33493835811015 L 1370 415.0989959070793 L 1371 414.8624789659808 L 1372 414.62539790787184 L 1373 414.38776313055035 L 1374 414.149585056099 L 1375 413.9108741304284 L 1376 413.6716408228185 L 1377 413.4318956254597 L 1378 413.19164905299255 L 1379 412.95091164204683 L 1380 412.7096939507793 L 1381 412.46800655841054 L 1382 412.22586006476115 L 1383 411.9832650897867 L 1384 411.7402322731122 L 1385 411.49677227356534 L 1386 411.2528957687088 L 1387 411.00861345437244 L 1388 410.76393604418365 L 1389 410.51887426909803 L 1390 410.27343887692825 L 1391 410.02764063187317 L 1392 409.7814903140453 L 1393 409.53499871899817 L 1394 409.2881766572532 L 1395 409.04103495382486 L 1396 408.7935844477467 L 1397 408.54583599159537 L 1398 408.2978004510149 L 1399 408.0494887042403 L 1400 407.80091164162 L 1401 407.55208016513905 L 1402 407.30300518793985 L 1403 407.0536976338447 L 1404 406.80416843687584 L 1405 406.5544285407763 L 1406 406.3044888985299 L 1407 406.0543604718807 L 1408 405.8040542308526 L 1409 405.55358115326794 L 1410 405.30295222426594 L 1411 405.0521784358212 L 1412 404.80127078626157 L 1413 404.5502402797857 L 1414 404.2990979259804 L 1415 404.04785473933777 L 1416 403.7965217387723 L 1417 403.54510994713746 L 1418 403.29363039074224 L 1419 403.04209409886784 L 1420 402.79051210328345 L 1421 402.53889543776285 L 1422 402.28725513760054 L 1423 402.03560223912723 L 1424 401.7839477792264 L 1425 401.53230279485 L 1426 401.28067832253424 L 1427 401.0290853979159 L 1428 400.77753505524805 L 1429 400.5260383269163 L 1430 400.27460624295475 L 1431 400.02324983056246 L 1432 399.7719801136198 L 1433 399.52080811220463 L 1434 399.26974484210945 L 1435 399.018801314358 L 1436 398.7679885347224 L 1437 398.5173175032405 L 1438 398.2667992137335 L 1439 398.0164446533235 L 1440 397.766264801952 L 1441 397.5162706318983 L 1442 397.2664731072978 L 1443 397.01688318366195 L 1444 396.76751180739694 L 1445 396.51836991532423 L 1446 396.2694684342007 L 1447 396.02081828023915 L 1448 395.77243035863 L 1449 395.52431556306266 L 1450 395.27648477524815 L 1451 395.02894886444125 L 1452 394.7817186869644 L 1453 394.53480508573114 L 1454 394.288218889771 L 1455 394.04197091375397 L 1456 393.7960719575169 L 1457 393.5505328055892 L 1458 393.3053642267203 L 1459 393.0605769734071 L 1460 392.81618178142253 L 1461 392.57218936934476 L 1462 392.32861043808686 L 1463 392.0854556704277 L 1464 391.8427357305433 L 1465 391.60046126353944 L 1466 391.3586428949842 L 1467 391.1172912304425 L 1468 390.87641685501063 L 1469 390.63603033285244 L 1470 390.39614220673536 L 1471 390.1567629975686 L 1472 389.91790320394136 L 1473 389.6795733016627 L 1474 389.4417837433018 L 1475 389.2045449577298 L 1476 388.9678673496622 L 1477 388.7317612992025 L 1478 388.49623716138746 L 1479 388.2613052657321 L 1480 388.02697591577754 L 1481 387.79325938863843 L 1482 387.56016593455263 L 1483 387.3277057764315 L 1484 387.0958891094116 L 1485 386.86472610040755 L 1486 386.63422688766605 L 1487 386.40440158032135 L 1488 386.17526025795195 L 1489 385.94681297013835 L 1490 385.7190697360223 L 1491 385.4920405438676 L 1492 385.26573535062175 L 1493 385.0401640814797 L 1494 384.81533662944804 L 1495 384.59126285491135 L 1496 384.3679525851999 L 1497 384.1454156141583 L 1498 383.92366170171647 L 1499 383.70270057346096 L 1500 383.48254192020886 L 1501 383.2631953975827 L 1502 383.04467062558695 L 1503 382.826977188186 L 1504 382.610124632884 L 1505 382.394122470306 L 1506 382.178980173781 L 1507 381.9647071789263 L 1508 381.7513128832337 L 1509 381.53880664565753 L 1510 381.32719778620395 L 1511 381.1164955855223 L 1512 380.90670928449805 L 1513 380.69784808384765 L 1514 380.4899211437148 L 1515 380.28293758326885 L 1516 380.0769064803048 L 1517 379.87183687084524 L 1518 379.6677377487439 L 1519 379.46461806529135 L 1520 379.2624867288224 L 1521 379.06135260432524 L 1522 378.86122451305295 L 1523 378.66211123213634 L 1524 378.464021494199 L 1525 378.26696398697464 L 1526 378.07094735292577 L 1527 377.8759801888647 L 1528 377.6820710455765 L 1529 377.48922842744406 L 1530 377.2974607920751 L 1531 377.1067765499313 L 1532 376.9171840639591 L 1533 376.7286916492234 L 1534 376.5413075725425 L 1535 376.3550400521259 L 1536 376.16989725721345 L 1537 375.98588730771746 L 1538 375.80301827386614 L 1539 375.62129817585014" stroke-linecap="round" stroke-linejoin="round" stroke-miterlimit="10" stroke-width="13"/></g></svg>