<svg id="visual" viewBox="0 0 900 600" width="900" height="600" xmlns="http://www.w3.org/2000/svg" xmlns:xlink="http://www.w3.org/1999/xlink" version="1.1"><rect x="0" y="0" width="900" height="600" fill="#080808"></rect><path d="M0 297L21.5 300.8C43 304.7 86 312.3 128.8 316.5C171.7 320.7 214.3 321.3 257.2 303.8C300 286.3 343 250.7 385.8 254.8C428.7 259 471.3 303 514.2 324.8C557 346.7 600 346.3 642.8 343.5C685.7 340.7 728.3 335.3 771.2 327.3C814 319.3 857 308.7 878.5 303.3L900 298L900 0L878.5 0C857 0 814 0 771.2 0C728.3 0 685.7 0 642.8 0C600 0 557 0 514.2 0C471.3 0 428.7 0 385.8 0C343 0 300 0 257.2 0C214.3 0 171.7 0 128.8 0C86 0 43 0 21.5 0L0 0Z" fill="#23095A" stroke-linecap="round" stroke-linejoin="miter"></path></svg>