<svg id="visual" viewBox="0 0 900 600" width="900" height="600" xmlns="http://www.w3.org/2000/svg" xmlns:xlink="http://www.w3.org/1999/xlink" version="1.1"><rect x="0" y="0" width="900" height="600" fill="#050505"></rect><path d="M0 71L21.5 75.7C43 80.3 86 89.7 128.8 87.7C171.7 85.7 214.3 72.3 257.2 77.2C300 82 343 105 385.8 113.2C428.7 121.3 471.3 114.7 514.2 102.2C557 89.7 600 71.3 642.8 71C685.7 70.7 728.3 88.3 771.2 92.8C814 97.3 857 88.7 878.5 84.3L900 80L900 0L878.5 0C857 0 814 0 771.2 0C728.3 0 685.7 0 642.8 0C600 0 557 0 514.2 0C471.3 0 428.7 0 385.8 0C343 0 300 0 257.2 0C214.3 0 171.7 0 128.8 0C86 0 43 0 21.5 0L0 0Z" fill="#23095A" stroke-linecap="round" stroke-linejoin="miter"></path></svg>