<svg id="visual" viewBox="0 0 900 675" width="900" height="675" xmlns="http://www.w3.org/2000/svg" xmlns:xlink="http://www.w3.org/1999/xlink" version="1.1"><rect width="900" height="675" fill="#010101"></rect><g><g transform="translate(326 368)"><path d="M0 -45.6L19.8 -41L35.6 -28.4L44.4 -10.1L44.4 10.1L35.6 28.4L19.8 41L0 45.6L-19.8 41L-35.6 28.4L-44.4 10.1L-44.4 -10.1L-35.6 -28.4L-19.8 -41Z" fill="#faff06"></path></g><g transform="translate(63 93)"><path d="M0 -30L13 -27L23.5 -18.7L29.2 -6.7L29.2 6.7L23.5 18.7L13 27L0 30L-13 27L-23.5 18.7L-29.2 6.7L-29.2 -6.7L-23.5 -18.7L-13 -27Z" fill="#faff06"></path></g><g transform="translate(227 143)"><path d="M0 -37L16.1 -33.3L28.9 -23.1L36.1 -8.2L36.1 8.2L28.9 23.1L16.1 33.3L0 37L-16.1 33.3L-28.9 23.1L-36.1 8.2L-36.1 -8.2L-28.9 -23.1L-16.1 -33.3Z" fill="#faff06"></path></g><g transform="translate(481 453)"><path d="M0 -42L18.2 -37.8L32.8 -26.2L40.9 -9.3L40.9 9.3L32.8 26.2L18.2 37.8L0 42L-18.2 37.8L-32.8 26.2L-40.9 9.3L-40.9 -9.3L-32.8 -26.2L-18.2 -37.8Z" fill="#faff06"></path></g><g transform="translate(826 182)"><path d="M0 -42L18.2 -37.8L32.8 -26.2L40.9 -9.3L40.9 9.3L32.8 26.2L18.2 37.8L0 42L-18.2 37.8L-32.8 26.2L-40.9 9.3L-40.9 -9.3L-32.8 -26.2L-18.2 -37.8Z" fill="#faff06"></path></g><g transform="translate(188 260)"><path d="M0 -31L13.5 -27.9L24.2 -19.3L30.2 -6.9L30.2 6.9L24.2 19.3L13.5 27.9L0 31L-13.5 27.9L-24.2 19.3L-30.2 6.9L-30.2 -6.9L-24.2 -19.3L-13.5 -27.9Z" fill="#faff06"></path></g><g transform="translate(745 129)"><path d="M0 -28L12.1 -25.2L21.9 -17.5L27.3 -6.2L27.3 6.2L21.9 17.5L12.1 25.2L0 28L-12.1 25.2L-21.9 17.5L-27.3 6.2L-27.3 -6.2L-21.9 -17.5L-12.1 -25.2Z" fill="#faff06"></path></g><g transform="translate(458 340)"><path d="M0 -36L15.6 -32.4L28.1 -22.4L35.1 -8L35.1 8L28.1 22.4L15.6 32.4L0 36L-15.6 32.4L-28.1 22.4L-35.1 8L-35.1 -8L-28.1 -22.4L-15.6 -32.4Z" fill="#faff06"></path></g></g></svg>