<svg id="visual" viewBox="0 0 540 960" width="540" height="960" xmlns="http://www.w3.org/2000/svg" xmlns:xlink="http://www.w3.org/1999/xlink" version="1.1"><rect width="540" height="960" fill="#010101"></rect><g><g transform="translate(391 276)"><path d="M0 -84.2L36.5 -75.8L65.8 -52.5L82 -18.7L82 18.7L65.8 52.5L36.5 75.8L0 84.2L-36.5 75.8L-65.8 52.5L-82 18.7L-82 -18.7L-65.8 -52.5L-36.5 -75.8Z" fill="#23095a"></path></g><g transform="translate(115 746)"><path d="M0 -62L26.9 -55.9L48.5 -38.7L60.4 -13.8L60.4 13.8L48.5 38.7L26.9 55.9L0 62L-26.9 55.9L-48.5 38.7L-60.4 13.8L-60.4 -13.8L-48.5 -38.7L-26.9 -55.9Z" fill="#23095a"></path></g><g transform="translate(159 446)"><path d="M0 -72L31.2 -64.9L56.3 -44.9L70.2 -16L70.2 16L56.3 44.9L31.2 64.9L0 72L-31.2 64.9L-56.3 44.9L-70.2 16L-70.2 -16L-56.3 -44.9L-31.2 -64.9Z" fill="#23095a"></path></g><g transform="translate(449 834)"><path d="M0 -47L20.4 -42.3L36.7 -29.3L45.8 -10.5L45.8 10.5L36.7 29.3L20.4 42.3L0 47L-20.4 42.3L-36.7 29.3L-45.8 10.5L-45.8 -10.5L-36.7 -29.3L-20.4 -42.3Z" fill="#23095a"></path></g><g transform="translate(190 176)"><path d="M0 -51L22.1 -45.9L39.9 -31.8L49.7 -11.3L49.7 11.3L39.9 31.8L22.1 45.9L0 51L-22.1 45.9L-39.9 31.8L-49.7 11.3L-49.7 -11.3L-39.9 -31.8L-22.1 -45.9Z" fill="#23095a"></path></g><g transform="translate(267 841)"><path d="M0 -51L22.1 -45.9L39.9 -31.8L49.7 -11.3L49.7 11.3L39.9 31.8L22.1 45.9L0 51L-22.1 45.9L-39.9 31.8L-49.7 11.3L-49.7 -11.3L-39.9 -31.8L-22.1 -45.9Z" fill="#23095a"></path></g><g transform="translate(342 659)"><path d="M0 -80L34.7 -72.1L62.5 -49.9L78 -17.8L78 17.8L62.5 49.9L34.7 72.1L0 80L-34.7 72.1L-62.5 49.9L-78 17.8L-78 -17.8L-62.5 -49.9L-34.7 -72.1Z" fill="#23095a"></path></g><g transform="translate(343 441)"><path d="M0 -65L28.2 -58.6L50.8 -40.5L63.4 -14.5L63.4 14.5L50.8 40.5L28.2 58.6L0 65L-28.2 58.6L-50.8 40.5L-63.4 14.5L-63.4 -14.5L-50.8 -40.5L-28.2 -58.6Z" fill="#23095a"></path></g><g transform="translate(401 107)"><path d="M0 -49L21.3 -44.1L38.3 -30.6L47.8 -10.9L47.8 10.9L38.3 30.6L21.3 44.1L0 49L-21.3 44.1L-38.3 30.6L-47.8 10.9L-47.8 -10.9L-38.3 -30.6L-21.3 -44.1Z" fill="#23095a"></path></g></g></svg>