<svg id="visual" viewBox="0 0 900 675" width="900" height="675" xmlns="http://www.w3.org/2000/svg" xmlns:xlink="http://www.w3.org/1999/xlink" version="1.1"><rect width="900" height="675" fill="#010101"></rect><g><g transform="translate(516 376)"><path d="M0 -45.6L19.8 -41L35.6 -28.4L44.4 -10.1L44.4 10.1L35.6 28.4L19.8 41L0 45.6L-19.8 41L-35.6 28.4L-44.4 10.1L-44.4 -10.1L-35.6 -28.4L-19.8 -41Z" fill="#faff06"></path></g><g transform="translate(87 156)"><path d="M0 -44L19.1 -39.6L34.4 -27.4L42.9 -9.8L42.9 9.8L34.4 27.4L19.1 39.6L0 44L-19.1 39.6L-34.4 27.4L-42.9 9.8L-42.9 -9.8L-34.4 -27.4L-19.1 -39.6Z" fill="#faff06"></path></g><g transform="translate(664 218)"><path d="M0 -44L19.1 -39.6L34.4 -27.4L42.9 -9.8L42.9 9.8L34.4 27.4L19.1 39.6L0 44L-19.1 39.6L-34.4 27.4L-42.9 9.8L-42.9 -9.8L-34.4 -27.4L-19.1 -39.6Z" fill="#faff06"></path></g><g transform="translate(188 210)"><path d="M0 -40L17.4 -36L31.3 -24.9L39 -8.9L39 8.9L31.3 24.9L17.4 36L0 40L-17.4 36L-31.3 24.9L-39 8.9L-39 -8.9L-31.3 -24.9L-17.4 -36Z" fill="#faff06"></path></g><g transform="translate(841 573)"><path d="M0 -40L17.4 -36L31.3 -24.9L39 -8.9L39 8.9L31.3 24.9L17.4 36L0 40L-17.4 36L-31.3 24.9L-39 8.9L-39 -8.9L-31.3 -24.9L-17.4 -36Z" fill="#faff06"></path></g><g transform="translate(321 110)"><path d="M0 -43L18.7 -38.7L33.6 -26.8L41.9 -9.6L41.9 9.6L33.6 26.8L18.7 38.7L0 43L-18.7 38.7L-33.6 26.8L-41.9 9.6L-41.9 -9.6L-33.6 -26.8L-18.7 -38.7Z" fill="#faff06"></path></g><g transform="translate(676 561)"><path d="M0 -39L16.9 -35.1L30.5 -24.3L38 -8.7L38 8.7L30.5 24.3L16.9 35.1L0 39L-16.9 35.1L-30.5 24.3L-38 8.7L-38 -8.7L-30.5 -24.3L-16.9 -35.1Z" fill="#faff06"></path></g><g transform="translate(138 487)"><path d="M0 -44L19.1 -39.6L34.4 -27.4L42.9 -9.8L42.9 9.8L34.4 27.4L19.1 39.6L0 44L-19.1 39.6L-34.4 27.4L-42.9 9.8L-42.9 -9.8L-34.4 -27.4L-19.1 -39.6Z" fill="#faff06"></path></g></g></svg>