<svg id="visual" viewBox="0 0 900 600" width="900" height="600" xmlns="http://www.w3.org/2000/svg" xmlns:xlink="http://www.w3.org/1999/xlink" version="1.1"><rect width="900" height="600" fill="#010101"></rect><g><g transform="translate(137 284)"><path d="M0 -85.9L37.3 -77.4L67.2 -53.6L83.7 -19.1L83.7 19.1L67.2 53.6L37.3 77.4L0 85.9L-37.3 77.4L-67.2 53.6L-83.7 19.1L-83.7 -19.1L-67.2 -53.6L-37.3 -77.4Z" fill="#23095a"></path></g><g transform="translate(625 486)"><path d="M0 -63L27.3 -56.8L49.3 -39.3L61.4 -14L61.4 14L49.3 39.3L27.3 56.8L0 63L-27.3 56.8L-49.3 39.3L-61.4 14L-61.4 -14L-49.3 -39.3L-27.3 -56.8Z" fill="#23095a"></path></g><g transform="translate(624 158)"><path d="M0 -33L14.3 -29.7L25.8 -20.6L32.2 -7.3L32.2 7.3L25.8 20.6L14.3 29.7L0 33L-14.3 29.7L-25.8 20.6L-32.2 7.3L-32.2 -7.3L-25.8 -20.6L-14.3 -29.7Z" fill="#23095a"></path></g><g transform="translate(239 95)"><path d="M0 -45L19.5 -40.5L35.2 -28.1L43.9 -10L43.9 10L35.2 28.1L19.5 40.5L0 45L-19.5 40.5L-35.2 28.1L-43.9 10L-43.9 -10L-35.2 -28.1L-19.5 -40.5Z" fill="#23095a"></path></g><g transform="translate(446 402)"><path d="M0 -82L35.6 -73.9L64.1 -51.1L79.9 -18.2L79.9 18.2L64.1 51.1L35.6 73.9L0 82L-35.6 73.9L-64.1 51.1L-79.9 18.2L-79.9 -18.2L-64.1 -51.1L-35.6 -73.9Z" fill="#23095a"></path></g><g transform="translate(218 463)"><path d="M0 -53L23 -47.8L41.4 -33L51.7 -11.8L51.7 11.8L41.4 33L23 47.8L0 53L-23 47.8L-41.4 33L-51.7 11.8L-51.7 -11.8L-41.4 -33L-23 -47.8Z" fill="#23095a"></path></g><g transform="translate(809 421)"><path d="M0 -67L29.1 -60.4L52.4 -41.8L65.3 -14.9L65.3 14.9L52.4 41.8L29.1 60.4L0 67L-29.1 60.4L-52.4 41.8L-65.3 14.9L-65.3 -14.9L-52.4 -41.8L-29.1 -60.4Z" fill="#23095a"></path></g><g transform="translate(439 182)"><path d="M0 -51L22.1 -45.9L39.9 -31.8L49.7 -11.3L49.7 11.3L39.9 31.8L22.1 45.9L0 51L-22.1 45.9L-39.9 31.8L-49.7 11.3L-49.7 -11.3L-39.9 -31.8L-22.1 -45.9Z" fill="#23095a"></path></g><g transform="translate(811 219)"><path d="M0 -44L19.1 -39.6L34.4 -27.4L42.9 -9.8L42.9 9.8L34.4 27.4L19.1 39.6L0 44L-19.1 39.6L-34.4 27.4L-42.9 9.8L-42.9 -9.8L-34.4 -27.4L-19.1 -39.6Z" fill="#23095a"></path></g></g></svg>