<svg id="visual" viewBox="0 0 540 960" width="540" height="960" xmlns="http://www.w3.org/2000/svg" xmlns:xlink="http://www.w3.org/1999/xlink" version="1.1"><rect width="540" height="960" fill="#010101"></rect><g><g transform="translate(97 538)"><path d="M0 -42.1L18.3 -37.9L32.9 -26.2L41 -9.4L41 9.4L32.9 26.2L18.3 37.9L0 42.1L-18.3 37.9L-32.9 26.2L-41 9.4L-41 -9.4L-32.9 -26.2L-18.3 -37.9Z" fill="#faff06"></path></g><g transform="translate(469 856)"><path d="M0 -41L17.8 -36.9L32.1 -25.6L40 -9.1L40 9.1L32.1 25.6L17.8 36.9L0 41L-17.8 36.9L-32.1 25.6L-40 9.1L-40 -9.1L-32.1 -25.6L-17.8 -36.9Z" fill="#faff06"></path></g><g transform="translate(97 845)"><path d="M0 -41L17.8 -36.9L32.1 -25.6L40 -9.1L40 9.1L32.1 25.6L17.8 36.9L0 41L-17.8 36.9L-32.1 25.6L-40 9.1L-40 -9.1L-32.1 -25.6L-17.8 -36.9Z" fill="#faff06"></path></g><g transform="translate(270 454)"><path d="M0 -39L16.9 -35.1L30.5 -24.3L38 -8.7L38 8.7L30.5 24.3L16.9 35.1L0 39L-16.9 35.1L-30.5 24.3L-38 8.7L-38 -8.7L-30.5 -24.3L-16.9 -35.1Z" fill="#faff06"></path></g><g transform="translate(188 507)"><path d="M0 -36L15.6 -32.4L28.1 -22.4L35.1 -8L35.1 8L28.1 22.4L15.6 32.4L0 36L-15.6 32.4L-28.1 22.4L-35.1 8L-35.1 -8L-28.1 -22.4L-15.6 -32.4Z" fill="#faff06"></path></g><g transform="translate(483 320)"><path d="M0 -38L16.5 -34.2L29.7 -23.7L37 -8.5L37 8.5L29.7 23.7L16.5 34.2L0 38L-16.5 34.2L-29.7 23.7L-37 8.5L-37 -8.5L-29.7 -23.7L-16.5 -34.2Z" fill="#faff06"></path></g><g transform="translate(411 698)"><path d="M0 -40L17.4 -36L31.3 -24.9L39 -8.9L39 8.9L31.3 24.9L17.4 36L0 40L-17.4 36L-31.3 24.9L-39 8.9L-39 -8.9L-31.3 -24.9L-17.4 -36Z" fill="#faff06"></path></g><g transform="translate(83 154)"><path d="M0 -36L15.6 -32.4L28.1 -22.4L35.1 -8L35.1 8L28.1 22.4L15.6 32.4L0 36L-15.6 32.4L-28.1 22.4L-35.1 8L-35.1 -8L-28.1 -22.4L-15.6 -32.4Z" fill="#faff06"></path></g></g></svg>