<svg id="visual" viewBox="0 0 540 960" width="540" height="960" xmlns="http://www.w3.org/2000/svg" xmlns:xlink="http://www.w3.org/1999/xlink" version="1.1"><rect width="540" height="960" fill="#010101"></rect><g><g transform="translate(386 380)"><path d="M0 -42.1L18.3 -37.9L32.9 -26.2L41 -9.4L41 9.4L32.9 26.2L18.3 37.9L0 42.1L-18.3 37.9L-32.9 26.2L-41 9.4L-41 -9.4L-32.9 -26.2L-18.3 -37.9Z" fill="#faff06"></path></g><g transform="translate(461 226)"><path d="M0 -27L11.7 -24.3L21.1 -16.8L26.3 -6L26.3 6L21.1 16.8L11.7 24.3L0 27L-11.7 24.3L-21.1 16.8L-26.3 6L-26.3 -6L-21.1 -16.8L-11.7 -24.3Z" fill="#faff06"></path></g><g transform="translate(334 724)"><path d="M0 -36L15.6 -32.4L28.1 -22.4L35.1 -8L35.1 8L28.1 22.4L15.6 32.4L0 36L-15.6 32.4L-28.1 22.4L-35.1 8L-35.1 -8L-28.1 -22.4L-15.6 -32.4Z" fill="#faff06"></path></g><g transform="translate(170 164)"><path d="M0 -29L12.6 -26.1L22.7 -18.1L28.3 -6.5L28.3 6.5L22.7 18.1L12.6 26.1L0 29L-12.6 26.1L-22.7 18.1L-28.3 6.5L-28.3 -6.5L-22.7 -18.1L-12.6 -26.1Z" fill="#faff06"></path></g><g transform="translate(412 777)"><path d="M0 -24L10.4 -21.6L18.8 -15L23.4 -5.3L23.4 5.3L18.8 15L10.4 21.6L0 24L-10.4 21.6L-18.8 15L-23.4 5.3L-23.4 -5.3L-18.8 -15L-10.4 -21.6Z" fill="#faff06"></path></g><g transform="translate(240 355)"><path d="M0 -35L15.2 -31.5L27.4 -21.8L34.1 -7.8L34.1 7.8L27.4 21.8L15.2 31.5L0 35L-15.2 31.5L-27.4 21.8L-34.1 7.8L-34.1 -7.8L-27.4 -21.8L-15.2 -31.5Z" fill="#faff06"></path></g><g transform="translate(296 216)"><path d="M0 -35L15.2 -31.5L27.4 -21.8L34.1 -7.8L34.1 7.8L27.4 21.8L15.2 31.5L0 35L-15.2 31.5L-27.4 21.8L-34.1 7.8L-34.1 -7.8L-27.4 -21.8L-15.2 -31.5Z" fill="#faff06"></path></g><g transform="translate(374 535)"><path d="M0 -28L12.1 -25.2L21.9 -17.5L27.3 -6.2L27.3 6.2L21.9 17.5L12.1 25.2L0 28L-12.1 25.2L-21.9 17.5L-27.3 6.2L-27.3 -6.2L-21.9 -17.5L-12.1 -25.2Z" fill="#faff06"></path></g></g></svg>