<svg id="visual" viewBox="0 0 900 600" width="900" height="600" xmlns="http://www.w3.org/2000/svg" xmlns:xlink="http://www.w3.org/1999/xlink" version="1.1"><rect x="0" y="0" width="900" height="600" fill="#23095A"></rect><path d="M0 441L129 412L257 477L386 439L514 469L643 407L771 414L900 401L900 601L771 601L643 601L514 601L386 601L257 601L129 601L0 601Z" fill="#faff06"></path><path d="M0 476L129 474L257 473L386 482L514 451L643 502L771 494L900 453L900 601L771 601L643 601L514 601L386 601L257 601L129 601L0 601Z" fill="#f1c000"></path><path d="M0 524L129 510L257 521L386 491L514 507L643 505L771 510L900 486L900 601L771 601L643 601L514 601L386 601L257 601L129 601L0 601Z" fill="#d78500"></path><path d="M0 526L129 538L257 536L386 525L514 505L643 529L771 507L900 551L900 601L771 601L643 601L514 601L386 601L257 601L129 601L0 601Z" fill="#b24e00"></path><path d="M0 557L129 565L257 544L386 575L514 574L643 560L771 549L900 578L900 601L771 601L643 601L514 601L386 601L257 601L129 601L0 601Z" fill="#871400"></path></svg>