<svg id="visual" viewBox="0 0 900 600" width="900" height="600" xmlns="http://www.w3.org/2000/svg" xmlns:xlink="http://www.w3.org/1999/xlink" version="1.1"><g stroke-width="1" stroke-linejoin="bevel"><path d="M422 288L476 166L396 214Z" fill="#100418" stroke="#100418"></path><path d="M422 288L502 323L476 166Z" fill="#1b0b37" stroke="#1b0b37"></path><path d="M502 323L569 209L476 166Z" fill="#210a51" stroke="#210a51"></path><path d="M536 65L408 103L476 166Z" fill="#010101" stroke="#010101"></path><path d="M476 166L408 103L396 214Z" fill="#010101" stroke="#010101"></path><path d="M280 309L411 397L422 288Z" fill="#1d0b40" stroke="#1d0b40"></path><path d="M422 288L411 397L502 323Z" fill="#170827" stroke="#170827"></path><path d="M411 397L510 398L502 323Z" fill="#190a2f" stroke="#190a2f"></path><path d="M502 323L607 330L569 209Z" fill="#1d0b40" stroke="#1d0b40"></path><path d="M510 398L607 330L502 323Z" fill="#1f0b48" stroke="#1f0b48"></path><path d="M633 110L536 65L569 209Z" fill="#14061f" stroke="#14061f"></path><path d="M569 209L536 65L476 166Z" fill="#210a51" stroke="#210a51"></path><path d="M260 206L280 309L396 214Z" fill="#190a2f" stroke="#190a2f"></path><path d="M396 214L280 309L422 288Z" fill="#100418" stroke="#100418"></path><path d="M272 118L260 206L396 214Z" fill="#170827" stroke="#170827"></path><path d="M607 330L666 226L569 209Z" fill="#23095a" stroke="#23095a"></path><path d="M666 226L633 110L569 209Z" fill="#170827" stroke="#170827"></path><path d="M408 103L272 118L396 214Z" fill="#010101" stroke="#010101"></path><path d="M325 0L272 118L408 103Z" fill="#100418" stroke="#100418"></path><path d="M571 0L475 0L536 65Z" fill="#1d0b40" stroke="#1d0b40"></path><path d="M536 65L475 0L408 103Z" fill="#1f0b48" stroke="#1f0b48"></path><path d="M411 397L484 474L510 398Z" fill="#210a51" stroke="#210a51"></path><path d="M510 398L637 414L607 330Z" fill="#14061f" stroke="#14061f"></path><path d="M395 523L484 474L411 397Z" fill="#1d0b40" stroke="#1d0b40"></path><path d="M260 206L225 296L280 309Z" fill="#210a51" stroke="#210a51"></path><path d="M280 309L310 439L411 397Z" fill="#190a2f" stroke="#190a2f"></path><path d="M195 226L225 296L260 206Z" fill="#210a51" stroke="#210a51"></path><path d="M475 0L383 0L408 103Z" fill="#09030f" stroke="#09030f"></path><path d="M579 503L637 414L510 398Z" fill="#23095a" stroke="#23095a"></path><path d="M607 330L729 312L666 226Z" fill="#14061f" stroke="#14061f"></path><path d="M192 380L310 439L280 309Z" fill="#09030f" stroke="#09030f"></path><path d="M633 110L571 0L536 65Z" fill="#1b0b37" stroke="#1b0b37"></path><path d="M666 226L684 103L633 110Z" fill="#23095a" stroke="#23095a"></path><path d="M633 110L684 103L571 0Z" fill="#09030f" stroke="#09030f"></path><path d="M325 0L236 94L272 118Z" fill="#170827" stroke="#170827"></path><path d="M272 118L236 94L260 206Z" fill="#1d0b40" stroke="#1d0b40"></path><path d="M236 94L195 226L260 206Z" fill="#170827" stroke="#170827"></path><path d="M383 0L325 0L408 103Z" fill="#100418" stroke="#100418"></path><path d="M737 380L729 312L607 330Z" fill="#100418" stroke="#100418"></path><path d="M666 226L768 120L684 103Z" fill="#170827" stroke="#170827"></path><path d="M524 600L579 503L484 474Z" fill="#210a51" stroke="#210a51"></path><path d="M484 474L579 503L510 398Z" fill="#100418" stroke="#100418"></path><path d="M637 414L737 380L607 330Z" fill="#1d0b40" stroke="#1d0b40"></path><path d="M310 439L395 523L411 397Z" fill="#1d0b40" stroke="#1d0b40"></path><path d="M218 525L303 493L310 439Z" fill="#1d0b40" stroke="#1d0b40"></path><path d="M310 439L303 493L395 523Z" fill="#210a51" stroke="#210a51"></path><path d="M192 380L280 309L225 296Z" fill="#1d0b40" stroke="#1d0b40"></path><path d="M129 323L192 380L225 296Z" fill="#190a2f" stroke="#190a2f"></path><path d="M669 501L737 380L637 414Z" fill="#09030f" stroke="#09030f"></path><path d="M780 376L773 295L729 312Z" fill="#23095a" stroke="#23095a"></path><path d="M729 312L773 295L666 226Z" fill="#14061f" stroke="#14061f"></path><path d="M815 228L768 120L666 226Z" fill="#23095a" stroke="#23095a"></path><path d="M684 103L731 0L571 0Z" fill="#170827" stroke="#170827"></path><path d="M579 503L669 501L637 414Z" fill="#190a2f" stroke="#190a2f"></path><path d="M631 600L669 501L579 503Z" fill="#1f0b48" stroke="#1f0b48"></path><path d="M195 226L129 323L225 296Z" fill="#100418" stroke="#100418"></path><path d="M282 600L369 600L303 493Z" fill="#1f0b48" stroke="#1f0b48"></path><path d="M98 187L129 323L195 226Z" fill="#170827" stroke="#170827"></path><path d="M824 487L780 376L737 380Z" fill="#190a2f" stroke="#190a2f"></path><path d="M737 380L780 376L729 312Z" fill="#1d0b40" stroke="#1d0b40"></path><path d="M773 295L815 228L666 226Z" fill="#170827" stroke="#170827"></path><path d="M900 211L815 228L900 333Z" fill="#190a2f" stroke="#190a2f"></path><path d="M800 0L731 0L768 120Z" fill="#09030f" stroke="#09030f"></path><path d="M768 120L731 0L684 103Z" fill="#010101" stroke="#010101"></path><path d="M71 129L98 187L236 94Z" fill="#1d0b40" stroke="#1d0b40"></path><path d="M236 94L98 187L195 226Z" fill="#1b0b37" stroke="#1b0b37"></path><path d="M369 600L524 600L395 523Z" fill="#14061f" stroke="#14061f"></path><path d="M395 523L524 600L484 474Z" fill="#1f0b48" stroke="#1f0b48"></path><path d="M325 0L165 0L236 94Z" fill="#09030f" stroke="#09030f"></path><path d="M218 525L310 439L192 380Z" fill="#1d0b40" stroke="#1d0b40"></path><path d="M303 493L369 600L395 523Z" fill="#09030f" stroke="#09030f"></path><path d="M104 515L218 525L192 380Z" fill="#09030f" stroke="#09030f"></path><path d="M165 0L71 129L236 94Z" fill="#170827" stroke="#170827"></path><path d="M0 277L79 364L129 323Z" fill="#1d0b40" stroke="#1d0b40"></path><path d="M0 277L129 323L98 187Z" fill="#210a51" stroke="#210a51"></path><path d="M129 323L79 364L192 380Z" fill="#14061f" stroke="#14061f"></path><path d="M524 600L631 600L579 503Z" fill="#100418" stroke="#100418"></path><path d="M669 501L824 487L737 380Z" fill="#190a2f" stroke="#190a2f"></path><path d="M207 600L282 600L218 525Z" fill="#170827" stroke="#170827"></path><path d="M218 525L282 600L303 493Z" fill="#1d0b40" stroke="#1d0b40"></path><path d="M900 139L800 0L768 120Z" fill="#010101" stroke="#010101"></path><path d="M165 0L92 0L71 129Z" fill="#210a51" stroke="#210a51"></path><path d="M631 600L698 600L669 501Z" fill="#09030f" stroke="#09030f"></path><path d="M900 333L815 228L773 295Z" fill="#09030f" stroke="#09030f"></path><path d="M815 228L900 139L768 120Z" fill="#190a2f" stroke="#190a2f"></path><path d="M900 333L773 295L780 376Z" fill="#170827" stroke="#170827"></path><path d="M698 600L824 487L669 501Z" fill="#1d0b40" stroke="#1d0b40"></path><path d="M104 515L207 600L218 525Z" fill="#1f0b48" stroke="#1f0b48"></path><path d="M900 211L900 139L815 228Z" fill="#14061f" stroke="#14061f"></path><path d="M900 371L900 333L780 376Z" fill="#14061f" stroke="#14061f"></path><path d="M79 364L104 515L192 380Z" fill="#14061f" stroke="#14061f"></path><path d="M824 487L900 371L780 376Z" fill="#100418" stroke="#100418"></path><path d="M0 72L0 196L71 129Z" fill="#210a51" stroke="#210a51"></path><path d="M71 129L0 196L98 187Z" fill="#1b0b37" stroke="#1b0b37"></path><path d="M79 364L0 470L104 515Z" fill="#210a51" stroke="#210a51"></path><path d="M0 196L0 277L98 187Z" fill="#190a2f" stroke="#190a2f"></path><path d="M92 0L0 72L71 129Z" fill="#210a51" stroke="#210a51"></path><path d="M0 277L0 402L79 364Z" fill="#010101" stroke="#010101"></path><path d="M900 139L900 0L800 0Z" fill="#190a2f" stroke="#190a2f"></path><path d="M92 0L0 0L0 72Z" fill="#23095a" stroke="#23095a"></path><path d="M0 402L0 470L79 364Z" fill="#09030f" stroke="#09030f"></path><path d="M104 515L64 600L207 600Z" fill="#1f0b48" stroke="#1f0b48"></path><path d="M838 600L900 517L824 487Z" fill="#100418" stroke="#100418"></path><path d="M824 487L900 517L900 371Z" fill="#010101" stroke="#010101"></path><path d="M698 600L838 600L824 487Z" fill="#170827" stroke="#170827"></path><path d="M0 470L64 600L104 515Z" fill="#14061f" stroke="#14061f"></path><path d="M838 600L900 600L900 517Z" fill="#100418" stroke="#100418"></path><path d="M0 470L0 600L64 600Z" fill="#010101" stroke="#010101"></path></g></svg>