<svg id="visual" viewBox="0 0 900 600" width="900" height="600" xmlns="http://www.w3.org/2000/svg" xmlns:xlink="http://www.w3.org/1999/xlink" version="1.1"><rect width="900" height="600" fill="#010101"></rect><g><g transform="translate(55 49)"><path d="M0 -85.9L37.3 -77.4L67.2 -53.6L83.7 -19.1L83.7 19.1L67.2 53.6L37.3 77.4L0 85.9L-37.3 77.4L-67.2 53.6L-83.7 19.1L-83.7 -19.1L-67.2 -53.6L-37.3 -77.4Z" fill="#23095a"></path></g><g transform="translate(348 549)"><path d="M0 -79L34.3 -71.2L61.8 -49.3L77 -17.6L77 17.6L61.8 49.3L34.3 71.2L0 79L-34.3 71.2L-61.8 49.3L-77 17.6L-77 -17.6L-61.8 -49.3L-34.3 -71.2Z" fill="#23095a"></path></g><g transform="translate(816 397)"><path d="M0 -53L23 -47.8L41.4 -33L51.7 -11.8L51.7 11.8L41.4 33L23 47.8L0 53L-23 47.8L-41.4 33L-51.7 11.8L-51.7 -11.8L-41.4 -33L-23 -47.8Z" fill="#23095a"></path></g><g transform="translate(230 323)"><path d="M0 -55L23.9 -49.6L43 -34.3L53.6 -12.2L53.6 12.2L43 34.3L23.9 49.6L0 55L-23.9 49.6L-43 34.3L-53.6 12.2L-53.6 -12.2L-43 -34.3L-23.9 -49.6Z" fill="#23095a"></path></g><g transform="translate(391 85)"><path d="M0 -82L35.6 -73.9L64.1 -51.1L79.9 -18.2L79.9 18.2L64.1 51.1L35.6 73.9L0 82L-35.6 73.9L-64.1 51.1L-79.9 18.2L-79.9 -18.2L-64.1 -51.1L-35.6 -73.9Z" fill="#23095a"></path></g><g transform="translate(537 454)"><path d="M0 -79L34.3 -71.2L61.8 -49.3L77 -17.6L77 17.6L61.8 49.3L34.3 71.2L0 79L-34.3 71.2L-61.8 49.3L-77 17.6L-77 -17.6L-61.8 -49.3L-34.3 -71.2Z" fill="#23095a"></path></g><g transform="translate(853 227)"><path d="M0 -82L35.6 -73.9L64.1 -51.1L79.9 -18.2L79.9 18.2L64.1 51.1L35.6 73.9L0 82L-35.6 73.9L-64.1 51.1L-79.9 18.2L-79.9 -18.2L-64.1 -51.1L-35.6 -73.9Z" fill="#23095a"></path></g><g transform="translate(5 450)"><path d="M0 -79L34.3 -71.2L61.8 -49.3L77 -17.6L77 17.6L61.8 49.3L34.3 71.2L0 79L-34.3 71.2L-61.8 49.3L-77 17.6L-77 -17.6L-61.8 -49.3L-34.3 -71.2Z" fill="#23095a"></path></g><g transform="translate(800 596)"><path d="M0 -70L30.4 -63.1L54.7 -43.6L68.2 -15.6L68.2 15.6L54.7 43.6L30.4 63.1L0 70L-30.4 63.1L-54.7 43.6L-68.2 15.6L-68.2 -15.6L-54.7 -43.6L-30.4 -63.1Z" fill="#23095a"></path></g><g transform="translate(601 171)"><path d="M0 -78L33.8 -70.3L61 -48.6L76 -17.4L76 17.4L61 48.6L33.8 70.3L0 78L-33.8 70.3L-61 48.6L-76 17.4L-76 -17.4L-61 -48.6L-33.8 -70.3Z" fill="#23095a"></path></g><g transform="translate(698 8)"><path d="M0 -54L23.4 -48.7L42.2 -33.7L52.6 -12L52.6 12L42.2 33.7L23.4 48.7L0 54L-23.4 48.7L-42.2 33.7L-52.6 12L-52.6 -12L-42.2 -33.7L-23.4 -48.7Z" fill="#23095a"></path></g><g transform="translate(233 3)"><path d="M0 -53L23 -47.8L41.4 -33L51.7 -11.8L51.7 11.8L41.4 33L23 47.8L0 53L-23 47.8L-41.4 33L-51.7 11.8L-51.7 -11.8L-41.4 -33L-23 -47.8Z" fill="#23095a"></path></g><g transform="translate(154 571)"><path d="M0 -84L36.4 -75.7L65.7 -52.4L81.9 -18.7L81.9 18.7L65.7 52.4L36.4 75.7L0 84L-36.4 75.7L-65.7 52.4L-81.9 18.7L-81.9 -18.7L-65.7 -52.4L-36.4 -75.7Z" fill="#23095a"></path></g><g transform="translate(871 5)"><path d="M0 -57L24.7 -51.4L44.6 -35.5L55.6 -12.7L55.6 12.7L44.6 35.5L24.7 51.4L0 57L-24.7 51.4L-44.6 35.5L-55.6 12.7L-55.6 -12.7L-44.6 -35.5L-24.7 -51.4Z" fill="#23095a"></path></g></g></svg>