<svg id="visual" viewBox="0 0 900 600" width="900" height="600" xmlns="http://www.w3.org/2000/svg" xmlns:xlink="http://www.w3.org/1999/xlink" version="1.1"><rect width="900" height="600" fill="#010101"></rect><g><g transform="translate(41 155)"><path d="M0 -65.7L28.5 -59.2L51.4 -41L64 -14.6L64 14.6L51.4 41L28.5 59.2L0 65.7L-28.5 59.2L-51.4 41L-64 14.6L-64 -14.6L-51.4 -41L-28.5 -59.2Z" fill="#Faff06"></path></g><g transform="translate(832 52)"><path d="M0 -59L25.6 -53.2L46.1 -36.8L57.5 -13.1L57.5 13.1L46.1 36.8L25.6 53.2L0 59L-25.6 53.2L-46.1 36.8L-57.5 13.1L-57.5 -13.1L-46.1 -36.8L-25.6 -53.2Z" fill="#Faff06"></path></g><g transform="translate(494 552)"><path d="M0 -57L24.7 -51.4L44.6 -35.5L55.6 -12.7L55.6 12.7L44.6 35.5L24.7 51.4L0 57L-24.7 51.4L-44.6 35.5L-55.6 12.7L-55.6 -12.7L-44.6 -35.5L-24.7 -51.4Z" fill="#Faff06"></path></g><g transform="translate(553 422)"><path d="M0 -50L21.7 -45L39.1 -31.2L48.7 -11.1L48.7 11.1L39.1 31.2L21.7 45L0 50L-21.7 45L-39.1 31.2L-48.7 11.1L-48.7 -11.1L-39.1 -31.2L-21.7 -45Z" fill="#Faff06"></path></g><g transform="translate(449 284)"><path d="M0 -57L24.7 -51.4L44.6 -35.5L55.6 -12.7L55.6 12.7L44.6 35.5L24.7 51.4L0 57L-24.7 51.4L-44.6 35.5L-55.6 12.7L-55.6 -12.7L-44.6 -35.5L-24.7 -51.4Z" fill="#Faff06"></path></g><g transform="translate(228 284)"><path d="M0 -64L27.8 -57.7L50 -39.9L62.4 -14.2L62.4 14.2L50 39.9L27.8 57.7L0 64L-27.8 57.7L-50 39.9L-62.4 14.2L-62.4 -14.2L-50 -39.9L-27.8 -57.7Z" fill="#Faff06"></path></g></g></svg>